<?xml version="1.0" encoding="UTF-8" standalone="no"?>
<!-- Created with Inkscape (http://www.inkscape.org/) -->

<svg
   width="210mm"
   height="297mm"
   viewBox="0 0 210 297"
   version="1.1"
   id="svg1"
   xml:space="preserve"
   inkscape:version="1.4 (e7c3feb100, 2024-10-09)"
   sodipodi:docname="icon.svg"
   xmlns:inkscape="http://www.inkscape.org/namespaces/inkscape"
   xmlns:sodipodi="http://sodipodi.sourceforge.net/DTD/sodipodi-0.dtd"
   xmlns="http://www.w3.org/2000/svg"
   xmlns:svg="http://www.w3.org/2000/svg"><sodipodi:namedview
     id="namedview1"
     pagecolor="#ffffff"
     bordercolor="#000000"
     borderopacity="0.25"
     inkscape:showpageshadow="2"
     inkscape:pageopacity="0.0"
     inkscape:pagecheckerboard="0"
     inkscape:deskcolor="#d1d1d1"
     inkscape:document-units="mm"
     showgrid="false"
     inkscape:zoom="11.313709"
     inkscape:cx="367.47455"
     inkscape:cy="567.45319"
     inkscape:window-width="1920"
     inkscape:window-height="1011"
     inkscape:window-x="0"
     inkscape:window-y="0"
     inkscape:window-maximized="1"
     inkscape:current-layer="layer1" /><defs
     id="defs1" /><g
     inkscape:label="Layer 1"
     inkscape:groupmode="layer"
     id="layer1"><path
       style="fill:#31a4d9"
       d="m 93.952532,154.01023 -0.2065,-0.36073 -1.537737,-2.71439 -1.537732,-2.71439 v -0.11625 -0.11625 l 1.74279,-3.06685 1.742799,-3.06685 0.18337,-0.0492 0.18337,-0.0492 3.23299,-0.001 3.232988,-0.001 0.19868,0.0755 0.19867,0.0755 0.81291,1.42729 0.81292,1.4273 0.94781,1.67339 0.9478,1.6734 -0.20409,0.3586 -0.2041,0.35861 -0.17163,0.29633 -0.17163,0.29634 -0.26582,0.44822 -0.26583,0.44823 v 0.0212 0.0212 l -1.13254,1.98592 -1.13255,1.98591 -3.600208,0.0221 -3.60022,0.0221 z m 6.154128,0.026 -0.0804,-0.0789 -2.211368,-0.55606 -2.21138,-0.55606 -0.20162,5.3e-4 -0.20163,5.4e-4 -0.1612,0.27463 -0.1612,0.27463 -0.20587,0.35983 -0.20587,0.35984 h 2.8605 2.860508 z m -5.453698,-0.76301 0.34929,-0.58795 -0.0703,-0.12168 -0.0704,-0.12168 -1.60596,-1.66914 -1.605967,-1.66914 -0.02936,0.0881 -0.02936,0.0881 0.09951,0.19519 0.09951,0.1952 1.192257,2.0955 1.19225,2.0955 h 0.0646 0.0646 z m 6.459728,0.39745 0.0465,-0.1905 0.52198,-2.26999 0.52197,-2.26999 -0.0452,-0.0452 -0.0452,-0.0452 -1.08559,0.60957 -1.085578,0.60957 -0.46567,0.25732 -0.46566,0.25731 -0.0847,0.0636 -0.0847,0.0636 -0.42334,0.23225 -0.42333,0.23225 -1.16907,0.67482 -1.16906,0.67481 0.0532,0.0543 0.0532,0.0543 2.4282,0.60529 2.428188,0.60528 0.22366,0.009 0.22365,0.009 z m 1.92752,-2.80992 1.43102,-2.52921 v -0.0626 -0.0626 l -0.87455,0.18884 -0.87455,0.18883 -0.0922,0.057 -0.0922,0.057 -0.31032,1.29044 -0.31031,1.29043 -0.20603,0.93134 -0.20603,0.93133 -0.0498,0.15818 -0.0498,0.15819 0.10186,-0.034 0.10187,-0.034 z m -4.183328,-0.45327 3.243448,-1.83798 1.1e-4,-0.0526 1.2e-4,-0.0526 -1.50283,-0.93011 -1.502838,-0.93012 -1.81199,-1.1128 -1.81198,-1.1128 h -0.0718 -0.0718 v 3.98839 3.98839 l 0.14309,-0.0549 0.1431,-0.0549 z m -3.78365,-2.09904 v -3.85939 l -0.0842,0.0282 -0.0842,0.0282 -1.86314,1.80636 -1.863145,1.80636 v 0.0823 0.0823 l 1.1274,1.15936 1.127405,1.15936 0.7481,0.78317 0.7481,0.78316 h 0.0718 0.0718 z m 8.619168,-0.19471 0.70285,-0.1597 0.0405,-0.0405 0.0405,-0.0405 -1.07387,-1.89545 -1.07387,-1.89544 -0.26388,-0.4592 -0.26388,-0.45919 -0.0891,-0.0297 -0.0891,-0.0297 0.15776,0.91222 0.15776,0.91222 0.29394,1.63958 0.29394,1.63958 0.0465,0.0752 0.0465,0.0752 0.18531,-0.0425 0.18531,-0.0425 z m -1.97691,-2.91909 -0.48576,-2.72114 -0.0715,-0.0793 -0.0715,-0.0793 -0.48795,0.14826 -0.48795,0.14825 -2.201338,0.72281 -2.20133,0.72281 -0.0597,0.0553 -0.0597,0.0553 3.27701,2.00646 3.277018,2.00646 0.0292,-0.1324 0.0292,-0.13239 z m -8.496338,0.6109 1.76941,-1.70562 v -0.10299 -0.10299 l -0.3411,-0.7279 -0.34111,-0.72789 -0.0742,-0.0458 -0.0742,-0.0459 -0.2081,0.35985 -0.20811,0.35986 -0.25748,0.46566 -0.25748,0.46567 -0.922351,1.60883 -0.922355,1.60884 -0.05679,0.148 -0.05679,0.148 h 0.0906 0.0906 z m 4.71158,-2.75532 2.561158,-0.8279 v -0.0649 -0.0649 h -3.011368 -3.01137 l 0.0543,0.17096 0.0543,0.17096 0.33173,0.71804 0.33174,0.71804 0.0642,0.004 0.0642,0.004 z"
       id="path291" /></g></svg>
