<?xml version="1.0" encoding="UTF-8" standalone="no"?>
<svg
   width="1129"
   height="663"
   viewBox="0 0 1129 663"
   version="1.1"
   id="svg29"
   xmlns="http://www.w3.org/2000/svg"
   xmlns:svg="http://www.w3.org/2000/svg"
   xmlns:rdf="http://www.w3.org/1999/02/22-rdf-syntax-ns#"
   xmlns:cc="http://creativecommons.org/ns#"
   xmlns:dc="http://purl.org/dc/elements/1.1/">
  <defs
     id="defs29" />
  <title
     id="title1">Focus on What Matters</title>
  <circle
     cx="321"
     cy="321"
     r="321"
     fill="#f2f2f2"
     id="circle1" />
  <ellipse
     cx="559"
     cy="635.49998"
     rx="514"
     ry="27.50002"
     fill="#3f3d56"
     id="ellipse1" />
  <ellipse
     cx="558"
     cy="627"
     rx="460"
     ry="22"
     opacity="0.2"
     id="ellipse2" />
  <rect
     x="131"
     y="152.5"
     width="840"
     height="50"
     fill="#3f3d56"
     id="rect2" />
  <path
     d="M166.5,727.3299A21.67009,21.67009,0,0,0,188.1701,749H984.8299A21.67009,21.67009,0,0,0,1006.5,727.3299V296h-840Z"
     transform="translate(-35.5 -118.5)"
     fill="#3f3d56"
     id="path2" />
  <path
     d="M984.8299,236H188.1701A21.67009,21.67009,0,0,0,166.5,257.6701V296h840V257.6701A21.67009,21.67009,0,0,0,984.8299,236Z"
     transform="translate(-35.5 -118.5)"
     fill="#3f3d56"
     id="path3" />
  <path
     d="M984.8299,236H188.1701A21.67009,21.67009,0,0,0,166.5,257.6701V296h840V257.6701A21.67009,21.67009,0,0,0,984.8299,236Z"
     transform="translate(-35.5 -118.5)"
     opacity="0.2"
     id="path4" />
  <circle
     cx="181"
     cy="147.5"
     r="13"
     fill="#3f3d56"
     id="circle4" />
  <circle
     cx="217"
     cy="147.5"
     r="13"
     fill="#3f3d56"
     id="circle5" />
  <circle
     cx="253"
     cy="147.5"
     r="13"
     fill="#3f3d56"
     id="circle6" />
  <rect
     x="168"
     y="213.5"
     width="337"
     height="386"
     rx="5.33505"
     fill="#606060"
     id="rect6" />
  <rect
     x="603"
     y="272.5"
     width="284"
     height="22"
     rx="5.47638"
     fill="#2e8555"
     id="rect7" />
  <rect
     x="537"
     y="352.5"
     width="416"
     height="15"
     rx="5.47638"
     fill="#2e8555"
     id="rect8" />
  <rect
     x="537"
     y="396.5"
     width="416"
     height="15"
     rx="5.47638"
     fill="#2e8555"
     id="rect9" />
  <rect
     x="537"
     y="440.5"
     width="416"
     height="15"
     rx="5.47638"
     fill="#2e8555"
     id="rect10" />
  <rect
     x="537"
     y="484.5"
     width="416"
     height="15"
     rx="5.47638"
     fill="#2e8555"
     id="rect11" />
  <rect
     x="865"
     y="552.5"
     width="88"
     height="26"
     rx="7.02756"
     fill="#3ecc5f"
     id="rect12" />
  <path
     d="M1088.60287,624.61594a30.11371,30.11371,0,0,0,3.98291-15.266c0-13.79652-8.54358-24.98081-19.08256-24.98081s-19.08256,11.18429-19.08256,24.98081a30.11411,30.11411,0,0,0,3.98291,15.266,31.248,31.248,0,0,0,0,30.53213,31.248,31.248,0,0,0,0,30.53208,31.248,31.248,0,0,0,0,30.53208,30.11408,30.11408,0,0,0-3.98291,15.266c0,13.79652,8.54353,24.98081,19.08256,24.98081s19.08256-11.18429,19.08256-24.98081a30.11368,30.11368,0,0,0-3.98291-15.266,31.248,31.248,0,0,0,0-30.53208,31.248,31.248,0,0,0,0-30.53208,31.248,31.248,0,0,0,0-30.53213Z"
     transform="translate(-35.5 -118.5)"
     fill="#3f3d56"
     id="path12" />
  <ellipse
     cx="1038.00321"
     cy="460.31783"
     rx="19.08256"
     ry="24.9808"
     fill="#3f3d56"
     id="ellipse12" />
  <ellipse
     cx="1038.00321"
     cy="429.78574"
     rx="19.08256"
     ry="24.9808"
     fill="#3f3d56"
     id="ellipse13" />
  <path
     d="M1144.93871,339.34489a91.61081,91.61081,0,0,0,7.10658-10.46092l-50.141-8.23491,54.22885.4033a91.566,91.566,0,0,0,1.74556-72.42605l-72.75449,37.74139,67.09658-49.32086a91.41255,91.41255,0,1,0-150.971,102.29805,91.45842,91.45842,0,0,0-10.42451,16.66946l65.0866,33.81447-69.40046-23.292a91.46011,91.46011,0,0,0,14.73837,85.83669,91.40575,91.40575,0,1,0,143.68892,0,91.41808,91.41808,0,0,0,0-113.02862Z"
     transform="translate(-35.5 -118.5)"
     fill="#3ecc5f"
     fill-rule="evenodd"
     id="path13" />
  <path
     d="M981.6885,395.8592a91.01343,91.01343,0,0,0,19.56129,56.51431,91.40575,91.40575,0,1,0,143.68892,0C1157.18982,436.82067,981.6885,385.60008,981.6885,395.8592Z"
     transform="translate(-35.5 -118.5)"
     opacity="0.1"
     id="path14" />
  <path
     style="fill:#31a4d9;stroke-width:14.9814"
     d="m 281.47199,494.29831 -3.09365,-5.4042 -23.0374,-40.6653 -23.03732,-40.66525 v -1.74159 -1.74158 l 26.10936,-45.94558 26.10952,-45.94563 2.74713,-0.73707 2.74712,-0.73707 48.43458,-0.0159 48.43459,-0.0159 2.97651,1.13108 2.97635,1.13111 12.17848,21.38275 12.17868,21.3829 14.19947,25.06965 14.19935,25.06981 -3.05757,5.37232 -3.05769,5.37249 -2.57125,4.43943 -2.57125,4.43956 -3.98233,6.71495 -3.98253,6.7151 v 0.31751 0.3175 l -16.96697,29.75179 -16.96717,29.75164 -53.93601,0.33098 -53.9362,0.33098 z m 92.19721,0.38964 -1.20449,-1.18201 -33.12932,-8.33056 -33.12949,-8.33052 -3.02055,0.008 -3.02067,0.008 -2.41499,4.11437 -2.415,4.11432 -3.08421,5.39072 -3.08421,5.39091 h 42.85416 42.85432 z m -81.70384,-11.4309 5.23284,-8.80832 -1.05319,-1.82292 -1.05469,-1.82292 -24.05947,-25.006 -24.05955,-25.00603 -0.43987,1.31987 -0.43986,1.31988 1.49079,2.92418 1.49079,2.92439 17.86165,31.39345 17.86152,31.39345 h 0.96781 0.9678 z m 96.77555,5.95433 0.69664,-2.85395 7.81998,-34.00755 7.81982,-34.00755 -0.67718,-0.67718 -0.67714,-0.67714 -16.26363,9.13221 -16.26343,9.13216 -6.97636,3.85501 -6.97624,3.85486 -1.2689,0.95282 -1.26894,0.95282 -6.34219,3.4794 -6.34207,3.47944 -17.51426,10.10973 -17.51413,10.10956 0.797,0.81349 0.79701,0.8135 36.37775,9.06807 36.3776,9.06791 3.35069,0.13477 3.35062,0.13477 z m 28.8769,-42.09644 21.43863,-37.89102 v -0.93784 -0.93784 l -13.10197,2.8291 -13.10193,2.82894 -1.38131,0.85392 -1.38127,0.85393 -4.64901,19.33258 -4.64888,19.33237 -3.08659,13.95277 -3.08663,13.95256 -0.74607,2.36977 -0.74607,2.36989 1.52599,-0.50935 1.52615,-0.50935 z m -62.67199,-6.79062 48.59131,-27.53542 0.002,-0.78805 0.002,-0.788 -22.51442,-13.93434 -22.51457,-13.93445 -27.1461,-16.67127 -27.14594,-16.67127 h -1.07566 -1.07566 v 59.75153 59.75153 l 2.14371,-0.82246 2.14383,-0.82249 z m -56.68424,-31.4466 v -57.81893 l -1.26141,0.42247 -1.26145,0.4225 -27.91238,27.06171 -27.91246,27.06175 v 1.23298 1.23295 l 16.88999,17.36878 16.89007,17.36883 11.20758,11.73294 11.20754,11.73283 h 1.07566 1.07567 z m 129.12692,-2.91701 10.52965,-2.39253 0.60674,-0.60674 0.60674,-0.60674 -16.08803,-28.39645 -16.08803,-28.39628 -3.95328,-6.87941 -3.95331,-6.87933 -1.33482,-0.44494 -1.33485,-0.44493 2.36346,13.66629 2.36347,13.6663 4.4036,24.56316 4.40365,24.56315 0.69664,1.1266 0.6966,1.1266 2.77622,-0.63671 2.77618,-0.63671 z m -29.61682,-43.73195 -7.27734,-40.76638 -1.07118,-1.18803 -1.07114,-1.18804 -7.31016,2.22117 -7.31015,2.22096 -32.97906,10.82868 -32.97894,10.82868 -0.8944,0.82848 -0.89439,0.82848 49.09408,30.0595 49.0942,30.05951 0.43749,-1.98354 0.43745,-1.98337 z m -127.28673,9.1521 26.50816,-25.55252 v -1.54292 -1.54292 l -5.11015,-10.90494 -5.11028,-10.90478 -1.11161,-0.68614 -1.11161,-0.68764 -3.11763,5.39103 -3.11778,5.39119 -3.85739,6.97624 -3.85739,6.97636 -13.81811,24.10248 -13.81812,24.1026 -0.85079,2.21724 -0.85079,2.21724 h 1.35729 1.35733 z m 70.58587,-41.27846 38.36966,-12.40307 v -0.97229 -0.97228 h -45.11441 -45.11441 l 0.81349,2.56122 0.81346,2.56122 4.9698,10.75721 4.96991,10.75722 0.96178,0.0599 0.96182,0.0598 z"
     id="path291" />
  <metadata
     id="metadata1">
    <rdf:RDF>
      <cc:Work
         rdf:about="">
        <dc:title>Focus on What Matters</dc:title>
      </cc:Work>
    </rdf:RDF>
  </metadata>
</svg>
